<?xml version="1.0" encoding="utf-8"?>
<!-- Generator: Adobe Illustrator 22.1.0, SVG Export Plug-In . SVG Version: 6.00 Build 0)  -->
<svg version="1.1" id="Layer_1" xmlns="http://www.w3.org/2000/svg" xmlns:xlink="http://www.w3.org/1999/xlink" x="0px" y="0px"
	 viewBox="0 0 287 49.4" style="enable-background:new 0 0 287 49.4;" xml:space="preserve">
<style type="text/css">
	.st0{fill:#E01B22;}
</style>
<g>
	<path class="st0" d="M55.5,0H31.7v7.7h23.8V29c0,9-3.9,11.9-15.3,11.9H0v7.7h40.2C56,48.6,63.3,43,63.3,29V7.7V0H55.5z"/>
	<path class="st0" d="M73.8,0h7.8v25.4c0,12.8,6.6,16.3,23.8,16.3c17.2,0,23.8-3.5,23.8-16.3V0h7.9v25.4c0,17.4-9.9,24-31.7,24
		c-21.5,0-31.6-6.4-31.6-24V0z"/>
	<path class="st0" d="M155.6,49h-7.9V0.4h6c12.4,0,15.8,4.2,28.9,22c12.4,16.9,13.8,18.8,20.2,18.8h0.4V0.4h7.9V49h-6
		c-11.6,0-15.1-3.9-28.7-21.9C163.1,9.9,162.1,8.3,155.9,8.3h-0.4V49z"/>
	<path class="st0" d="M287,24.6c0,19.4-11.5,25-33.8,25c-22.3,0-33.8-5.6-33.8-25c0-19.3,11.5-25,33.8-25
		C275.4-0.3,287,5.3,287,24.6 M278.9,24.6c0-15.1-8.9-17.6-25.7-17.6c-16.9,0-25.8,2.4-25.8,17.6c0,15.2,8.9,17.6,25.8,17.6
		C270,42.2,278.9,39.9,278.9,24.6"/>
</g>
</svg>
